<svg xmlns="http://www.w3.org/2000/svg" width="1920" height="1080" viewBox="0 0 1920 1080">
  <!-- Fondo base -->
  <rect width="1920" height="1080" fill="#f0f4f8"/>
  
  <!-- Patrón de onda superior -->
  <path d="M0,0 L1920,0 L1920,300 C1600,380 1280,320 960,380 C640,440 320,380 0,420 L0,0 Z" fill="#e6f0f7"/>
  
  <!-- Patrón de onda intermedia -->
  <path d="M0,200 C320,260 640,200 960,260 C1280,320 1600,260 1920,300 L1920,550 C1600,490 1280,550 960,490 C640,430 320,490 0,450 L0,200 Z" fill="#d1e5f0" fill-opacity="0.7"/>
  
  <!-- Patrón de onda inferior -->
  <path d="M0,450 C320,410 640,470 960,410 C1280,350 1600,410 1920,370 L1920,1080 L0,1080 L0,450 Z" fill="#c0d8e8" fill-opacity="0.5"/>
  
  <!-- Elementos decorativos -->
  <circle cx="200" cy="200" r="100" fill="#005a87" fill-opacity="0.05"/>
  <circle cx="1700" cy="900" r="150" fill="#005a87" fill-opacity="0.05"/>
  <circle cx="1000" cy="500" r="200" fill="#005a87" fill-opacity="0.03"/>
  
  <!-- Líneas decorativas -->
  <line x1="0" y1="600" x2="1920" y2="500" stroke="#005a87" stroke-width="1" stroke-opacity="0.1"/>
  <line x1="0" y1="800" x2="1920" y2="700" stroke="#005a87" stroke-width="1" stroke-opacity="0.1"/>
  
  <!-- Elementos de seguridad estilizados -->
  <path d="M100,980 L140,980 L120,940 Z" fill="#005a87" fill-opacity="0.2"/>
  <path d="M1800,100 L1840,100 L1820,140 Z" fill="#005a87" fill-opacity="0.2"/>
  <path d="M900,800 L940,800 L920,760 Z" fill="#005a87" fill-opacity="0.2"/>
  <path d="M1200,300 L1240,300 L1220,340 Z" fill="#005a87" fill-opacity="0.2"/>
  
  <!-- Patrón de puntos -->
  <g fill="#005a87" fill-opacity="0.1">
    <circle cx="100" cy="100" r="3"/>
    <circle cx="200" cy="100" r="3"/>
    <circle cx="300" cy="100" r="3"/>
    <circle cx="400" cy="100" r="3"/>
    <circle cx="500" cy="100" r="3"/>
    <circle cx="100" cy="200" r="3"/>
    <circle cx="200" cy="200" r="3"/>
    <circle cx="300" cy="200" r="3"/>
    <circle cx="400" cy="200" r="3"/>
    <circle cx="500" cy="200" r="3"/>
    <circle cx="1500" cy="700" r="3"/>
    <circle cx="1600" cy="700" r="3"/>
    <circle cx="1700" cy="700" r="3"/>
    <circle cx="1800" cy="700" r="3"/>
    <circle cx="1500" cy="800" r="3"/>
    <circle cx="1600" cy="800" r="3"/>
    <circle cx="1700" cy="800" r="3"/>
    <circle cx="1800" cy="800" r="3"/>
  </g>
</svg>
